<?xml version="1.0" standalone="no"?>
<!DOCTYPE svg PUBLIC "-//W3C//DTD SVG 20010904//EN"
 "http://www.w3.org/TR/2001/REC-SVG-20010904/DTD/svg10.dtd">
<svg version="1.0" xmlns="http://www.w3.org/2000/svg"
 width="512.000000pt" height="512.000000pt" viewBox="0 0 512.000000 512.000000"
 preserveAspectRatio="xMidYMid meet">
<metadata>
Created by potrace 1.14, written by Peter Selinger 2001-2017
</metadata>
<g transform="translate(0.000000,512.000000) scale(0.100000,-0.100000)"
fill="#000000" stroke="none">
<path d="M2025 3472 c-36 -6 -98 -56 -119 -97 -15 -30 -21 -61 -22 -128 -1
-48 -4 -91 -8 -94 -3 -3 -99 -6 -213 -5 -114 0 -217 -4 -229 -9 -13 -4 -59
-36 -104 -71 -45 -35 -128 -99 -185 -143 -57 -44 -165 -127 -240 -185 -76 -58
-155 -119 -176 -137 -23 -18 -56 -34 -81 -38 -24 -4 -65 -16 -92 -26 -28 -10
-52 -16 -55 -13 -3 3 -6 71 -6 152 l0 146 82 85 83 85 0 126 c0 85 -4 130 -12
138 -18 18 -621 17 -637 -1 -7 -10 -10 -104 -8 -313 l2 -299 29 -55 c16 -30
55 -101 87 -158 33 -57 59 -106 59 -109 0 -3 9 -17 21 -31 l21 -27 -109 -5
-108 -5 -3 -139 c-2 -93 1 -143 9 -152 9 -11 42 -14 139 -14 l129 0 28 -57
c53 -110 174 -204 303 -238 66 -17 185 -10 255 14 117 42 215 129 268 239 l21
42 1245 0 1246 0 29 -55 c81 -155 253 -257 423 -250 63 3 120 13 138 23 6 4
16 7 23 8 62 10 201 138 239 221 l24 53 284 0 c156 0 290 3 299 6 23 9 24 292
1 300 -8 3 -54 7 -102 8 l-88 2 -290 143 c-159 78 -316 154 -347 167 -109 46
-247 87 -368 108 -47 8 -103 18 -125 22 -22 4 -317 8 -655 9 -697 1 -667 -2
-715 80 -23 38 -25 53 -25 152 0 60 -5 124 -11 142 -12 35 -53 61 -97 61 l-29
0 1 151 c1 119 -2 153 -13 162 -13 11 -168 18 -216 9z"/>
</g>
</svg>
